<svg id="0d43167b-1215-4892-a28c-dec1d022c7ba" data-name="圖層 1" xmlns="http://www.w3.org/2000/svg" viewBox="0 0 32 32"><title>favicon</title><rect width="32" height="32" rx="6.25" ry="6.25" style="fill:#a37044"/><path d="M-355.07-239.52a.85.85,0,0,1-.6-.24.81.81,0,0,1-.23-.58A20.74,20.74,0,0,1-352.77-252c3.49-5.17,10.34-8.26,18.34-8.26a29.28,29.28,0,0,1,3.9.26.83.83,0,0,1,.68.82v5.27a.8.8,0,0,1-.28.62.85.85,0,0,1-.55.2h0a.81.81,0,0,1-.83-.82v-4.51c-.92-.08-1.8-.12-2.67-.12a27.16,27.16,0,0,0-9.69,1.7,15.84,15.84,0,0,0-7.22,5.36c-2.05,2.84-3.11,6.59-3.13,11.14A.81.81,0,0,1-355.07-239.52Z" transform="translate(358.88 265.88)" style="fill:#fff"/><path d="M-345.55-239.52a.81.81,0,0,1-.83-.82v-2.85h-2.87v2.85a.81.81,0,0,1-.83.82.81.81,0,0,1-.83-.82v-2.85h-.76a.81.81,0,0,1-.82-.83.85.85,0,0,1,.2-.55.8.8,0,0,1,.62-.28h7.36a.8.8,0,0,1,.62.28.85.85,0,0,1,.2.55.81.81,0,0,1-.82.83h-.4v2.85A.81.81,0,0,1-345.55-239.52Z" transform="translate(358.88 265.88)" style="fill:#fff"/><path d="M-341.17-239.5a.81.81,0,0,1-.8-.71.82.82,0,0,1,.57-.92,2,2,0,0,0,1.46-1.37,2.58,2.58,0,0,0-.71-2.35l-.18-.2a5,5,0,0,1-1.35-2.11,3.88,3.88,0,0,1,2.29-4.57.85.85,0,0,1,.35-.08.87.87,0,0,1,.84.69.77.77,0,0,1-.45.87,2.31,2.31,0,0,0-1.4,1.62,2.51,2.51,0,0,0,.68,2.19l.27.29a4.72,4.72,0,0,1,1.37,2.19,3.73,3.73,0,0,1-2.7,4.41.86.86,0,0,1-.25,0Z" transform="translate(358.88 265.88)" style="fill:#fff"/><path d="M-337-239.5a.81.81,0,0,1-.8-.71.82.82,0,0,1,.57-.92,2,2,0,0,0,1.46-1.37,2.58,2.58,0,0,0-.71-2.35l-.18-.2a4.94,4.94,0,0,1-1.35-2.11,3.88,3.88,0,0,1,2.29-4.57.85.85,0,0,1,.35-.08.88.88,0,0,1,.84.69.76.76,0,0,1-.45.87,2.31,2.31,0,0,0-1.4,1.62,2.51,2.51,0,0,0,.68,2.19l.27.29a4.73,4.73,0,0,1,1.37,2.19,3.73,3.73,0,0,1-2.7,4.41.86.86,0,0,1-.25,0Z" transform="translate(358.88 265.88)" style="fill:#fff"/><path d="M-332.91-239.5a.81.81,0,0,1-.79-.71.82.82,0,0,1,.57-.92,2,2,0,0,0,1.46-1.37,2.58,2.58,0,0,0-.71-2.35l-.18-.2a4.94,4.94,0,0,1-1.35-2.11,3.89,3.89,0,0,1,2.29-4.57.86.86,0,0,1,.35-.08.87.87,0,0,1,.84.69.77.77,0,0,1-.45.87,2.31,2.31,0,0,0-1.4,1.62,2.51,2.51,0,0,0,.68,2.19l.27.29a4.73,4.73,0,0,1,1.37,2.19,3.73,3.73,0,0,1-2.7,4.41.86.86,0,0,1-.25,0Z" transform="translate(358.88 265.88)" style="fill:#fff"/></svg>